<svg width="57" height="50" viewBox="0 0 57 50" fill="none" xmlns="http://www.w3.org/2000/svg">
<path fill-rule="evenodd" clip-rule="evenodd" d="M22.1546 32.0582C22.1792 31.1914 15.5791 13.7642 14.1354 10.4807C13.5178 9.07588 13.1426 7.31334 12.4839 8.04065C12.0914 8.47395 14.3075 13.3907 14.6123 14.1415C16.2186 18.097 20.5809 30.1571 22.1546 32.0582Z" fill="white"/>
<path fill-rule="evenodd" clip-rule="evenodd" d="M34.0117 32.307C34.8879 31.6806 38.557 22.2214 39.2804 20.4995C40.1206 18.4991 40.8909 16.464 41.6919 14.4385C42.1308 13.3291 44.1025 9.12703 43.8684 8.21698C42.9392 8.20347 42.9549 8.92859 42.2034 10.8215L38.5937 19.9109C37.6102 22.5321 34.3645 30.1209 34.0117 32.307Z" fill="white"/>
<path fill-rule="evenodd" clip-rule="evenodd" d="M19.286 33.7354L5.03625 13.8755C4.68969 13.3688 4.55265 12.7324 3.82094 12.7423C3.47302 13.5685 3.91461 13.4993 4.33267 14.1675C7.01672 18.4576 11.9437 24.8007 15.0129 28.899C16.285 30.5977 18.8607 33.1476 19.286 33.7354Z" fill="white"/>
<path fill-rule="evenodd" clip-rule="evenodd" d="M37.8477 32.8569C38.67 32.1612 40.955 29.1366 41.768 28.1568C42.7437 26.9812 52.0433 14.2306 52.5916 12.8823L52.1911 12.4688C51.5986 13.0006 50.8775 14.1865 50.3736 14.9028C48.9608 16.9112 38.2817 31.952 37.8477 32.8569Z" fill="white"/>
<path fill-rule="evenodd" clip-rule="evenodd" d="M6.95167 32.5673L14.4753 37.3822C16.0178 38.4123 20.6606 41.817 21.3469 42.9827L16.4036 39.6247C14.6656 38.4707 13.137 37.5442 11.3621 36.4419C9.42753 35.2405 2.26463 31.6841 0.221962 31.2096L6.85162 35.3033C6.37623 35.9486 5.68677 36.3006 5.23 36.934C7.05021 37.5222 14.162 40.601 15.1839 41.5405L8.45503 39.2934C6.80821 38.7806 2.66857 37.6061 1.01774 37.7249C2.71517 39.2255 5.45014 40.3288 7.92012 41.1096C9.28695 41.5418 10.6384 41.9058 11.9493 42.307C12.5824 42.5009 15.5189 43.6251 15.6953 43.6406C14.766 43.6665 12.5204 43.04 11.4832 42.805C10.0411 42.478 8.64086 42.1928 7.17282 41.918C3.4016 41.2124 1.4822 41.3595 0 44.4594L3.0387 44.8376L2.90348 45.8754C7.12338 46.3339 8.83863 45.3205 15.7649 46.692C17.6613 47.0675 19.5198 47.5495 21.3003 48.0948C22.247 48.385 25.9702 49.8999 26.5831 49.819C27.7046 49.6712 27.8375 48.4149 28.8779 49.4491C29.7066 50.2728 30.3304 49.805 31.3702 49.3943C38.8796 46.4267 45.6748 45.6403 53.5624 46.0038C53.342 45.3273 53.2224 45.386 52.9702 44.8495L56.568 44.3999C56.4901 44.1139 54.4527 42.2228 54.1253 41.9625C52.8777 40.9705 51.7693 41.3639 50.2382 41.7305C47.5563 42.3727 44.6606 42.9421 42.0204 43.4882C42.8512 43.2211 44.0956 42.6085 45.1735 42.2545C46.3987 41.8521 47.4797 41.5608 48.7131 41.1493C51.4448 40.238 52.8518 39.4594 54.9185 37.9705C53.2283 37.3069 43.2584 41.0708 41.1702 41.6266L45.8855 39.3099C46.7419 38.9399 47.5272 38.6239 48.3669 38.292C48.9142 38.0756 50.609 37.5283 50.9557 37.2172C50.4465 36.5778 49.8306 36.4011 49.7793 35.2925C50.8841 34.5196 56.5399 31.6615 57 31.0761C56.6902 30.7757 56.9929 30.7694 56.3449 30.9888C54.7653 31.5233 46.4872 35.7057 45.2981 36.3548C40.0494 39.2202 38.8544 40.5868 34.7415 43.2483C36.758 41.1176 39.1144 39.3794 41.7059 37.5522L49.467 32.5673C48.9023 32.1657 48.6864 32.2188 48.0763 31.6531C46.5645 30.2514 46.0136 31.326 43.5484 33.3547C41.7191 34.8601 39.8353 36.4154 38.1302 38.0026C35.1782 40.7502 33.3338 42.6193 30.7159 45.5806C27.8321 48.8423 28.838 48.9734 25.817 45.4982C25.0456 44.6109 24.2154 43.6971 23.381 42.884C22.5353 42.0601 21.7367 41.1766 20.8382 40.3757C20.4164 39.9998 19.956 39.5274 19.5516 39.1407C18.4368 38.0758 11.339 31.8334 10.0406 31.0453C9.26104 30.5721 8.87325 31.0677 8.35195 31.47C7.92432 31.8003 7.32667 32.1752 6.95167 32.5673Z" fill="white"/>
<path fill-rule="evenodd" clip-rule="evenodd" d="M25.2515 24.1111C22.6378 24.5834 22.0425 22.7017 21.4297 22.1684C21.4638 24.774 22.4104 26.8747 23.4949 28.4987C24.1003 29.4052 25.6321 31.1011 26.4389 31.8035C27.0344 32.322 27.065 32.3167 27.9771 32.2149L27.9779 0L26.224 6.59553C25.5648 8.74525 24.9112 10.7513 24.045 12.7451C23.4024 14.2241 22.1545 17.2586 22.0262 19.0782C21.8333 21.8109 22.9406 23.8512 25.2515 24.1111Z" fill="white"/>
<path fill-rule="evenodd" clip-rule="evenodd" d="M28.9805 32.2558C30.2304 32.2561 30.3392 32.1025 31.6287 30.7649C33.6148 28.7048 35.6574 25.4964 35.5252 22.0456C34.607 23.3183 34.0216 24.4628 31.7424 24.1295C37.0127 22.7557 34.5904 16.5822 32.9745 12.9048C30.7135 7.75878 30.4578 4.87458 29.0534 0.0683594L28.9805 32.2558Z" fill="white"/>
<path fill-rule="evenodd" clip-rule="evenodd" d="M25.4688 36.597C27.7521 39.5279 26.9294 38.184 27.8378 40.8527L28.0368 41.5585C28.1328 41.8986 28.1212 42.0117 28.2485 42.1803L28.2362 37.9815L28.2479 37.1969C28.2479 37.1951 28.2183 37.1878 28.1952 37.1773C28.1363 37.151 28.0512 37.1134 27.9787 37.0265C27.8719 36.8983 27.8272 36.8328 27.8047 36.6997C27.7393 36.3149 27.846 36.0566 28.1597 35.911C28.2387 35.8742 28.2957 35.8395 28.4489 35.8431C28.572 35.8461 28.6889 35.8928 28.7962 35.9632C28.869 36.0081 28.9159 36.074 28.9657 36.1404C29.112 36.3252 29.0911 36.6256 29.0555 36.7347C29.007 36.9501 28.8458 37.1138 28.7245 37.1976L28.7272 38.0006L28.7287 42.1803C29.1002 41.1854 29.306 40.1261 29.7422 39.1039C30.3527 37.6734 30.9155 37.5272 31.4797 36.597C30.8351 35.6121 29.8342 35.3972 29.8358 33.3809L27.132 33.3379C27.0885 35.2498 26.2759 35.6284 25.4688 36.597Z" fill="white"/>
<path fill-rule="evenodd" clip-rule="evenodd" d="M1.90625 24.0707C3.80429 24.6424 4.28828 25.9444 4.93857 27.014C5.46072 25.421 6.45975 24.5386 7.97155 24.0405C6.11319 22.6638 6.45251 23.9729 4.90761 20.666C4.24086 22.1497 4.2691 22.6569 2.9672 23.4356L1.90625 24.0707Z" fill="white"/>
<path fill-rule="evenodd" clip-rule="evenodd" d="M48.9219 23.8876C48.9515 23.91 48.9994 23.901 49.014 23.9494L49.7665 24.384C50.8648 25.05 50.9408 25.6424 51.6994 26.7706C51.952 26.0248 52.1106 25.4035 52.4951 24.9667C52.9413 24.4596 53.4932 24.3664 54.029 23.8876C53.3279 23.3626 53.017 23.5556 52.4365 22.7197C52.0988 22.2337 51.7717 21.4386 51.366 20.9766C51.1648 23.2519 50.3178 22.9769 48.9219 23.8876Z" fill="white"/>
<path fill-rule="evenodd" clip-rule="evenodd" d="M38.6875 28.2759C39.5922 27.2307 41.5821 23.7144 42.6003 22.1005C42.9613 21.5284 43.8284 20.5375 43.6204 19.7702C42.7357 19.3153 42.9578 19.8724 42.1529 21.3023C41.1529 23.0788 38.999 26.4805 38.6875 28.2759Z" fill="white"/>
<path fill-rule="evenodd" clip-rule="evenodd" d="M17.5659 28.3533C17.3144 27.0233 16.1754 24.9184 15.5794 23.7852L13.8649 20.5441C13.6865 20.147 13.4377 19.3338 12.8754 19.9542C12.4309 20.4446 13.5114 21.6503 13.8045 22.149L17.5659 28.3533Z" fill="white"/>
</svg>
