<svg width="1690" height="1351" viewBox="0 0 1690 1351" fill="none" xmlns="http://www.w3.org/2000/svg">
<path fill-rule="evenodd" clip-rule="evenodd" d="M1065.56 825.307C1097.54 824.959 1139.66 820.685 1154.8 843.482C1168.68 864.38 1170.46 911.012 1153.31 931.316C1125.36 964.421 1069.45 922.068 1064.95 879.521C1063.88 869.411 1063.58 834.363 1065.56 825.307ZM1004.71 822.538C1005.09 822.861 1005.75 822.718 1005.96 823.345L1014.96 827.447C1019.04 829.599 1020.66 831.243 1022.53 836.783C1026.34 848.08 1024.64 921.915 1024.64 936.747C1024.64 972.134 1028.22 1040.73 1023.64 1071.59L1064.69 1077.8L1064.66 897.951C1073.37 908.791 1074.43 923.397 1105.47 943.192C1147.39 969.924 1192.08 974.21 1186.43 1035.15C1182.67 1075.56 1165.63 1077.27 1153.22 1088.22C1180.43 1090.93 1194.48 1090.33 1211.54 1074.69C1224.26 1063.01 1230.83 1035.93 1224.62 1011.53C1212.5 963.903 1160.49 962.484 1133.81 947.086C1230.02 934.917 1210.53 854.721 1185.6 835.647C1164.45 819.469 1131.66 821.054 1102.54 821.065C1085.17 821.072 1014.81 818.055 1004.71 822.538Z" fill="white"/>
<path fill-rule="evenodd" clip-rule="evenodd" d="M1474.46 822.537C1486.69 835.246 1494.62 810.356 1494.62 879.641C1494.62 906.56 1496.55 1061.61 1492.79 1076.64C1489.96 1087.98 1484.9 1089.24 1477.96 1091.37L1470.52 1094.74C1481.04 1100.12 1521.96 1093.99 1535.74 1092.51C1531.28 1073.3 1534.45 968.862 1534.67 941.43C1554.81 941.522 1580.33 940.904 1597.4 948.95C1620.61 959.892 1621.43 980.387 1629.64 985.281L1630.15 894.795C1622.67 898.535 1623.38 921 1598.47 931.4C1580.6 938.865 1555.25 937.735 1534.58 937.833C1534.75 916.558 1532.07 839.864 1535.78 825.261C1589.7 825.352 1624.32 819.628 1663.29 852.849C1673.21 861.303 1678.27 871.445 1685.22 879.354C1685.5 879.677 1685.94 880.114 1686.21 880.402L1688.34 882.398C1688.49 881.935 1688.62 880.707 1688.64 880.966L1689.04 878.072C1689.05 877.663 1689.07 877.045 1689.05 876.584L1679.04 821.206C1655.13 821.296 1481.05 818.686 1474.46 822.537Z" fill="white"/>
<path fill-rule="evenodd" clip-rule="evenodd" d="M843.203 1039.38L875.639 1045.81C903.228 923.428 759.893 949.739 720.206 906.51C700.955 885.541 710.235 829.628 772.624 825.505C814.186 822.758 841.754 848.996 849.298 889.833C849.603 891.474 849.877 893.161 850.309 894.757C850.463 895.327 850.654 895.869 850.81 896.38L868.959 842.648C825.852 827.042 799.722 813.796 744.001 824.754C705.654 832.295 668.772 856.252 676.364 905.548C689.765 992.561 846.329 959.708 843.203 1039.38Z" fill="white"/>
<path fill-rule="evenodd" clip-rule="evenodd" d="M1246.98 1094.74C1254.96 1099 1426.66 1096.15 1451.68 1096.1C1453.94 1084.67 1464.3 1042.14 1461.09 1035.78C1457.35 1034.59 1447.26 1052.89 1437.54 1062.13C1428.47 1070.75 1419.41 1077.9 1405.49 1083.46C1388.21 1090.36 1324.53 1096.52 1307.08 1090.48C1306.85 1070.83 1304.22 852.106 1309.56 837.611C1313.85 825.959 1319.59 827.654 1324.98 825.593C1330.55 823.461 1328.3 825.307 1331.37 821.447C1300.95 822.897 1273.22 823.196 1242.75 821.377C1248.91 828.367 1259.03 823.884 1264.47 838.149C1269.42 851.144 1267 1010.22 1267.01 1035.73C1267.01 1062.78 1271.59 1083.92 1254.2 1091.07L1246.98 1094.74Z" fill="white"/>
<path fill-rule="evenodd" clip-rule="evenodd" d="M15.864 833.948C15.9796 834.039 20.1327 834.176 20.1776 860.556L20.1605 961.492C20.1691 986.333 24.2076 1073.8 14.6577 1087.39L60.6485 1075.4C60.4751 1027.86 57.2586 879.295 60.8101 842.519C63.5514 822.31 73.9597 829.83 80.4066 821.453C51.6381 823.333 28.442 822.386 0 821.783C2.29917 823.947 0.883057 822.924 4.23226 824.657C14.4511 829.94 10.8868 824.504 15.864 833.948Z" fill="white"/>
<path fill-rule="evenodd" clip-rule="evenodd" d="M124.765 1057.42C126.451 1055.6 127.69 1056.64 128.414 1047.26C130.08 1025.7 127.385 890.357 128.278 857.661C134.856 865.305 213.791 1017.45 222.692 1033.51L262.99 1024.87L155.691 821.226L111.125 821.144C116.49 843.052 124.956 835.071 124.801 868.201L124.765 1057.42Z" fill="white"/>
<path fill-rule="evenodd" clip-rule="evenodd" d="M403.175 999.242L443.986 995.334C432.53 969.956 421.388 939.806 410.656 913.565C405.02 899.788 399.273 886.411 393.703 872.439C388.765 860.051 377.573 839.54 391.4 829.169C405.231 818.798 422.47 833.661 429.182 842.645C461.826 886.35 449.749 955.531 499.999 938.878L482.133 986.118C479.019 997.181 480.837 991.32 482.485 993.849C487.573 986.502 496.289 960.178 500.204 949.748C505.999 934.307 511.361 920.369 517.195 904.896C523.569 887.989 538.909 838.818 550.756 829.979L561.212 821.696L504.179 822.301C508.36 826.035 517.061 825.871 523.266 828.892C543.833 838.911 529.483 861.772 521.048 884.179C513.809 903.405 502.446 956.87 473.346 933.091C455.099 918.179 452.778 846.494 417.62 826.364C403.718 818.402 376.197 823.474 354.508 823.009L321.387 824.995L326.547 829.331C329.722 832.143 332.187 835.199 334.169 838.274C337.68 843.717 342.176 853.656 345.203 860.91C355.632 885.89 396.577 990.61 403.175 999.242Z" fill="white"/>
<path fill-rule="evenodd" clip-rule="evenodd" d="M920.101 864.414L920.214 1054.6L960.105 1061.56L960.09 858.704C960.107 828.38 963.067 831.633 975.202 825.263C975.629 825.039 976.097 824.803 976.506 824.558L979.014 822.662C979.338 822.424 979.893 821.99 980.253 821.569L900.02 822.546C911.193 832.8 920.101 817.463 920.101 864.414Z" fill="white"/>
<path fill-rule="evenodd" clip-rule="evenodd" d="M592.826 995.974L632.871 1000.95L632.965 851.04C633.933 821.045 645.938 830.438 653.298 822.163C641.727 821.072 626.403 823.025 614.064 823.03C599.897 823.036 586.802 822.207 572.719 821.463C580.449 831.714 591.781 821.276 592.851 849.087C593.467 865.074 592.871 882.529 592.871 898.679C592.871 931.086 593.079 963.573 592.826 995.974Z" fill="white"/>
<path fill-rule="evenodd" clip-rule="evenodd" d="M785.888 740.687C774.448 807.666 706.85 780.894 721.213 705.129C732.911 643.415 798.985 664.019 785.888 740.687ZM737.864 665.367C671.635 684.488 688.957 802.503 768.885 782.575C836.554 765.705 816.581 642.639 737.864 665.367Z" fill="#08A5AA"/>
<path fill-rule="evenodd" clip-rule="evenodd" d="M1429.7 672.773C1473.33 644.887 1493.74 754.121 1454.3 775.203C1409.79 798.987 1386.85 700.159 1429.7 672.773ZM1424.86 665.734C1356.8 688.182 1380.23 803.2 1457.37 782.376C1485.17 774.872 1503.53 745.499 1495.98 707.994C1489.76 677.072 1460.06 654.122 1424.86 665.734Z" fill="#08A5AA"/>
<path fill-rule="evenodd" clip-rule="evenodd" d="M1232.35 775.208C1232.54 765.689 1231.46 756.025 1231.58 746.336C1231.8 730.007 1235.54 732.712 1237.39 724.036L1204.1 723.643C1206.17 730.547 1208.57 726.864 1211.16 736.03C1212.81 741.841 1212.52 749.877 1212.36 756.016C1211.95 771.439 1208.28 779.075 1192.69 778.571C1147.81 777.12 1145.52 687.45 1181.22 671.636C1213.45 657.358 1222.53 697.781 1229.91 700.101L1230.52 672.23C1188.11 648.52 1134.8 669.643 1134.42 723.532C1134 781.662 1186.39 796.087 1232.35 775.208Z" fill="#08A5AA"/>
<path fill-rule="evenodd" clip-rule="evenodd" d="M1003.66 781.999L1082.15 782.422L1082.62 753.022C1076.53 755.689 1076.26 768.379 1064.1 774.23C1053.22 779.466 1039.63 777.339 1031.35 772.431L1030.03 725.398C1061.43 725.661 1053.44 733.705 1062.69 740.543L1063.46 705.686C1049.35 712.503 1063.04 719.998 1030.2 719.994L1030.08 671.521C1039.59 671.121 1052.47 671.248 1060.68 674.126C1071.72 677.997 1070.56 687.655 1079.26 691.49L1079.41 665.285L1003.99 664.935C1005.16 673.894 1009.21 672.985 1009.14 691.167C1009.11 701.968 1009.1 712.754 1009.1 723.555C1009.1 734.355 1009.17 745.145 1009.2 755.941C1009.24 775.345 1006.77 770.538 1003.66 781.999Z" fill="#08A5AA"/>
<path fill-rule="evenodd" clip-rule="evenodd" d="M198.07 781.858L276.512 782.413L276.775 753.195C268.024 756.835 272.428 779.387 237.259 776.886C226.194 776.098 223.86 770.918 223.51 759.801C223.182 749.382 223.193 736.086 223.772 725.718C252.998 723.179 249.463 735.262 257.122 740.677L257.734 704.512C249.019 710.071 252.117 722.934 223.664 719.41L223.589 671.337C270.489 667.545 259.097 684.254 273.791 691.864L273.776 665.081L198.443 664.969C199.113 675.58 203.631 665.537 203.528 691.167L203.562 755.948C203.657 773.821 201.621 770.172 198.07 781.858Z" fill="#08A5AA"/>
<path fill-rule="evenodd" clip-rule="evenodd" d="M644.772 749.587C639.331 752.229 640.952 753.37 637.041 761.186C629.489 776.276 614.461 782.699 598.262 776.247C562.627 762.054 563.57 681.399 599.756 670.436C615.503 665.667 629.312 674.337 636.665 688.292C638.008 690.841 638.664 693.096 639.531 694.816C643.239 702.178 639.362 698.226 644.448 700.791L644.853 672.149C596.582 649.489 542.64 672.772 550.715 734.904C556.257 777.537 595.037 790.694 630.858 781.772C649.783 777.061 645.279 770.757 644.772 749.587Z" fill="#08A5AA"/>
<path fill-rule="evenodd" clip-rule="evenodd" d="M333.438 781.917L413.005 782.362C413.599 771.278 415.169 754.621 411.476 747.269C405.63 756.887 405.411 766.988 395.856 772.748C386.63 778.311 370.431 778.96 362.22 773.047C357.649 767.445 359.397 704.603 359.65 689.233C359.904 673.838 364.355 672.201 364.734 665.321L333.484 664.926C335.391 679.989 339.353 658.49 339.396 723.555C339.403 734.358 339.526 745.208 339.496 755.999C339.444 774.185 335.883 771.892 333.438 781.917Z" fill="#08A5AA"/>
<path fill-rule="evenodd" clip-rule="evenodd" d="M870.214 782.114L948.538 782.321C949.207 773.213 950.776 753.856 947.524 747.311C940.576 753.559 943.677 767.349 927.46 774.492C886.119 792.706 895.184 746.14 895.186 712.133C895.188 688.664 893.272 684.725 900.672 666.155L869.352 665.425C878.095 692.835 875.189 686.791 875.185 723.554C875.183 734.337 875.338 745.227 875.185 755.989C874.959 771.632 870.938 773.42 870.214 782.114Z" fill="#08A5AA"/>
<path fill-rule="evenodd" clip-rule="evenodd" d="M771.418 1238.88L793.75 1239.29C785.331 1222.55 789.625 1185.66 789.352 1163.24C815.189 1159.02 821.137 1189.41 799.541 1199.2C797.319 1200.21 797.78 1199.76 795.76 1200.91C793.091 1202.43 794.085 1201.67 792.566 1203.24C817.59 1250.33 841.276 1243.84 834.804 1234.45L807.616 1202.72C814.272 1198.22 820.306 1198.32 824.637 1191.43C829.659 1183.45 828.129 1171.78 822.316 1166.05C812.025 1155.9 788.351 1157.19 772.008 1158.67C776.973 1182.61 775.865 1163.7 775.804 1197.52C775.772 1215.35 777.85 1225.56 771.418 1238.88Z" fill="#ECC468"/>
<path fill-rule="evenodd" clip-rule="evenodd" d="M711.106 1233.79C708.211 1224.9 709.088 1210.49 709.537 1199.66C723.318 1199.29 734.641 1203.02 734.507 1218.34C734.366 1234.36 723.529 1237.28 711.106 1233.79ZM709.375 1162.51C723.297 1162.16 731.554 1164.7 730.683 1180.12C729.972 1192.7 721.861 1195.42 709.314 1195.75L709.375 1162.51ZM691.434 1239.33C710.953 1239.8 757.152 1244.15 748.973 1211.4C746.884 1203.04 740.751 1200.75 732.566 1198.11C737.275 1193.2 743.455 1191.66 745.317 1183.63C747.53 1174.1 743.399 1166.83 738.454 1163.22C727.759 1155.41 707.061 1158.05 692.28 1158.43C693.27 1170.59 695.451 1159.88 695.425 1197.52C695.412 1216.09 697.285 1224.16 691.434 1239.33Z" fill="#ECC468"/>
<path fill-rule="evenodd" clip-rule="evenodd" d="M929.75 1239.13L952.158 1239.15C943.321 1226.62 947.616 1182.05 947.626 1162.68C978.6 1161.8 978.808 1194.59 950.606 1201.18C953.717 1211.19 961.096 1218.93 966.797 1226.64C972.783 1234.74 978.001 1243.32 993.917 1238.8C993.656 1233.38 984.367 1225.61 980.813 1221.37C975.074 1214.52 971.724 1209.39 965.871 1203.14C971.944 1197.78 978.31 1198.33 982.819 1191.06C987.686 1183.2 985.876 1171.48 980.841 1166.16C971.632 1156.43 946.464 1157.38 930.478 1158.59C932.209 1173.99 933.786 1158.77 933.797 1197.53C933.801 1213.92 935.868 1226.28 929.75 1239.13Z" fill="#ECC468"/>
<path fill-rule="evenodd" clip-rule="evenodd" d="M1294.14 781.815L1325.42 782.169C1323.21 770.986 1319.71 776.579 1319.61 757.917L1319.64 691.158C1319.71 668.774 1323.99 675.686 1325.51 665.209L1294.5 665.171C1295.18 673.017 1300.29 672.455 1300.38 689.197L1300.42 755.994C1300.49 773.839 1298.4 770.261 1294.14 781.815Z" fill="#02ABAA"/>
<path fill-rule="evenodd" clip-rule="evenodd" d="M853.895 1239.33L908.435 1239.45L908.541 1220.08C902.927 1225.17 903.017 1229.98 896.615 1233.22C890.348 1236.39 881.245 1236.18 875.423 1233.62C869.792 1226.19 872.163 1210.36 872.48 1200.09C890.827 1198.75 887.055 1203.04 895.336 1210.5L895.373 1184.96C889.115 1194.33 886.288 1197.63 873.121 1196.23L872.403 1162.57C879.55 1161.85 886.727 1161.86 892.624 1164.11C899.192 1166.62 900.038 1169.72 904.425 1174.84C904.68 1175.14 905.193 1175.68 905.406 1175.92C905.62 1176.16 906.053 1176.66 906.41 1176.99L906.128 1158.25L854.736 1158.35C855.943 1163.5 858.318 1166.1 858.662 1174.58C858.957 1181.89 858.653 1190.11 858.656 1197.53C858.66 1216.53 860.899 1225.32 853.895 1239.33Z" fill="#EAC578"/>
<path fill-rule="evenodd" clip-rule="evenodd" d="M1012.61 1239.22L1035.02 1239.11C1028.26 1229.49 1030.09 1193.97 1030.44 1176.48C1030.6 1168.72 1033.32 1163.47 1033.5 1158.3L1013.37 1158.33C1015.01 1173.36 1016.75 1158.66 1016.72 1197.53C1016.71 1214.58 1018.72 1225.6 1012.61 1239.22Z" fill="#ECC468"/>
<path fill-rule="evenodd" clip-rule="evenodd" d="M643.18 1239.18L665.775 1239.21C657.196 1226.96 659.24 1172.94 664.973 1158.88L643.746 1158.55C649.074 1172.69 649.723 1224.09 643.18 1239.18Z" fill="#ECC468"/>
<path fill-rule="evenodd" clip-rule="evenodd" d="M1086.82 1172.23L1087.72 1178.43C1091.95 1188.3 1097.06 1200.1 1100.38 1210.82L1102.53 1215.24C1104.16 1221.96 1110.93 1231.19 1103.42 1238.42L1129.61 1239.49C1118.84 1218.28 1123.67 1232.47 1110.86 1200.18C1105.19 1185.88 1099.08 1171.21 1094.03 1157.26C1089.85 1160.1 1087.09 1162.93 1086.82 1172.23Z" fill="#ECC468"/>
<path fill-rule="evenodd" clip-rule="evenodd" d="M282.472 1020.43C288.853 1017.5 286.472 1018.57 286.419 995.755L286.393 852.908C286.534 844.704 287.134 835.301 291.678 830.397C296.239 825.471 302.809 826.18 306.045 825.012L309.78 822.929C310.049 822.758 310.561 822.351 310.889 821.988L258.164 821.795C264.966 828.131 270.792 824.237 276.726 830.474C285.947 840.166 282.442 890.278 282.442 908.195C282.444 945.605 282.449 983.015 282.472 1020.43Z" fill="white"/>
<path fill-rule="evenodd" clip-rule="evenodd" d="M705.968 1334.32C711.475 1332.46 720.538 1332.11 727.131 1334.95C727.35 1350.05 704.103 1353.06 705.968 1334.32ZM719.209 1316.05C706.204 1318.96 706.389 1305.79 710.762 1296.36C723.837 1296.19 722.479 1305.67 719.209 1316.05ZM706.8 1317.09C700.577 1328.13 704.807 1322.12 703.2 1330.84C702.346 1335.47 696.675 1339.3 699.694 1344.97C712.028 1357.74 739.417 1345.88 731.785 1328.24C728.343 1323.96 720.661 1326.12 715.113 1325.19C709.438 1324.25 713.246 1325.74 709.137 1323.16C712.786 1316.15 707.249 1321.51 716.61 1319.09C726.475 1316.54 734.578 1312.44 726.16 1296.51L727.986 1296.33C734.341 1295.07 732.838 1296.01 734.301 1292.7C726.731 1282.4 731.071 1293.41 717.978 1293.65C694.188 1294.09 697.59 1312.71 706.8 1317.09Z" fill="white"/>
<path fill-rule="evenodd" clip-rule="evenodd" d="M586.644 1231.93L587.012 1231.59L584.278 1224.31C583.957 1222.28 584.171 1217.02 584.233 1214.65L585.191 1161.27L574.074 1160.76L573.93 1235.79L588.621 1236.53L586.644 1231.93Z" fill="#F5C666"/>
<path fill-rule="evenodd" clip-rule="evenodd" d="M951.008 1296.39C955.434 1305.42 954.225 1322.13 951.826 1331.84L963.19 1331.7C963.06 1319.94 958.272 1305.55 964.806 1301.15C979.708 1291.13 977.904 1319.6 975.189 1331.67L986.98 1331.46C982.314 1317.23 991.111 1289.19 972.048 1293.81C966.985 1295.04 965.418 1296.88 963.2 1299.67L960.901 1293.18L951.008 1296.39Z" fill="white"/>
<path fill-rule="evenodd" clip-rule="evenodd" d="M586.645 1231.93L588.622 1236.53L573.931 1235.79L574.075 1160.76L585.192 1161.27L584.234 1214.65C584.172 1217.02 583.958 1222.28 584.279 1224.31L587.013 1231.59L586.723 1172.67C587.217 1163.3 589.375 1164.03 589.939 1158.42L569.52 1158.35C569.619 1164.81 572.434 1160.67 572.428 1197.53C572.424 1215.47 574.656 1224.6 568.293 1239.47L623.099 1239.5L623.001 1214.99C617.33 1221.88 618.331 1227.97 611.12 1232.48C602.515 1237.85 592.832 1235.24 586.645 1231.93Z" fill="#DCC594"/>
<path fill-rule="evenodd" clip-rule="evenodd" d="M669.378 1309.41C671.776 1292.22 682.282 1288.91 684.753 1308.16L669.378 1309.41ZM692.569 1323.79C679.67 1326.56 672.657 1333.11 669.002 1311.74H692.513C691.951 1299.75 689.669 1293.75 678.79 1293.28C669.178 1292.86 662.526 1299.44 661.063 1308.22C657.168 1331.59 679.063 1342.18 692.569 1323.79Z" fill="white"/>
<path fill-rule="evenodd" clip-rule="evenodd" d="M808.769 1309.5C808.699 1299.96 811.173 1294.94 820.654 1297.23C823.818 1302.94 823.024 1300.94 823.499 1308.19L808.769 1309.5ZM831.62 1323.5C818.544 1328.2 809.838 1330.19 808.234 1311.68L831.204 1311.7C830.47 1283.34 802.78 1290.86 800.017 1308.28C795.998 1333.61 819.861 1340.41 831.62 1323.5Z" fill="white"/>
<path fill-rule="evenodd" clip-rule="evenodd" d="M1042.73 1309.42C1042.54 1298.45 1044.62 1296.24 1054.88 1296.28L1057.43 1308.16L1042.73 1309.42ZM1065.07 1323.49C1052.02 1329.36 1044.22 1329.07 1042.04 1311.67L1065.06 1311.68C1064.38 1282.98 1036.99 1291.1 1034.03 1308.12C1029.7 1333.08 1054.23 1341.19 1065.07 1323.49Z" fill="white"/>
<path fill-rule="evenodd" clip-rule="evenodd" d="M1102.52 1215.24L1100.38 1210.82L1074.86 1210.8L1087.72 1178.43L1086.82 1172.23C1080.87 1178.73 1068.71 1214.11 1063.37 1224.76C1058.94 1233.63 1056.72 1233.09 1052.53 1238.97L1073.89 1239.46C1060.6 1210.38 1081.54 1214.84 1102.52 1215.24Z" fill="#E8C588"/>
<path fill-rule="evenodd" clip-rule="evenodd" d="M747.81 1309.49C748.681 1297.9 749.097 1295.41 759.932 1296.73C761.435 1299.75 762.747 1303.14 763.32 1307.91L747.81 1309.49ZM769.638 1324.54C755.251 1328.83 749.676 1328.36 747.406 1311.64L770.875 1311.73C769.979 1285.2 743.761 1289.43 739.691 1307.39C734.511 1330.24 760.894 1342.1 769.638 1324.54Z" fill="white"/>
<path fill-rule="evenodd" clip-rule="evenodd" d="M622.04 1331.75L654.404 1331.69L655.293 1317.53C651.782 1321.52 651.147 1326.54 646.008 1328.51C620.787 1338.18 634.997 1281.98 634.999 1281.98L621.312 1281.59C626.914 1294.56 624.47 1318.72 622.04 1331.75Z" fill="white"/>
<path fill-rule="evenodd" clip-rule="evenodd" d="M1027.12 1323.51C1010.4 1331.27 1002.7 1322.62 1004.47 1307.87C1005.55 1298.88 1010.29 1295.25 1018.97 1297.16C1018.64 1303.19 1016.85 1302.07 1019.62 1307.59C1045.13 1306.79 1004.57 1276.1 996.652 1306.54C989.97 1332.25 1018.8 1341.47 1027.12 1323.51Z" fill="white"/>
<path fill-rule="evenodd" clip-rule="evenodd" d="M1653.81 1067.14C1649.29 1075.29 1652.02 1070.01 1654.01 1071.85L1685.43 1061.14C1686.38 1055.65 1687.3 1049.92 1688.16 1044.88C1688.45 1043.16 1689.31 1038.14 1689.33 1036.98L1688.34 1031.22C1684.36 1035.03 1666.74 1059.65 1658.66 1065.23C1655.9 1067.13 1657.12 1066.58 1653.81 1067.14Z" fill="white"/>
<path fill-rule="evenodd" clip-rule="evenodd" d="M904.262 1332.14C912.218 1318.78 912.301 1305.95 921.798 1294.62L911.002 1294.09C913.421 1303.64 910.721 1313.75 905.837 1319.98C903.134 1310.64 897.024 1303.37 900.397 1294.48L885.621 1294.12C888.279 1300.13 891.821 1305.73 895.099 1313.83C897.567 1319.92 900.216 1328.73 904.262 1332.14Z" fill="white"/>
<path fill-rule="evenodd" clip-rule="evenodd" d="M837.762 1294.82L840.728 1298.43C845.839 1304.05 836.2 1347.49 860.331 1328.27C850.04 1322.67 850.54 1338.51 850.627 1298.11L859.041 1296.97C856.639 1294 863.284 1293.81 850.908 1293.87C850.327 1286.12 851.317 1287.05 847.961 1283.24C845.575 1289.47 843.27 1291.81 837.762 1294.82Z" fill="white"/>
<path fill-rule="evenodd" clip-rule="evenodd" d="M927.973 1296.96C932.327 1305.01 932.196 1321.16 928.881 1331.59L940.966 1331.65C936.765 1318.22 940.583 1307.16 938.064 1293.46L927.973 1296.96Z" fill="white"/>
<path fill-rule="evenodd" clip-rule="evenodd" d="M1018.35 1149.42C1026.06 1149.73 1025.02 1147.17 1030.41 1142.34C1035.23 1138.02 1038.31 1137.22 1041.06 1131.44L1026.68 1131.15L1018.35 1149.42Z" fill="#ECC468"/>
<path fill-rule="evenodd" clip-rule="evenodd" d="M929.818 1279.25L929.688 1286.62L937.343 1288.7C937.629 1287.7 940.016 1288.54 939.736 1283.2C939.406 1276.82 938.161 1279.65 937.265 1278.57L929.818 1279.25Z" fill="white"/>
<path fill-rule="evenodd" clip-rule="evenodd" d="M572.733 399.961L667.98 459.092C687.508 471.742 746.284 513.556 754.973 527.872L692.392 486.632C670.389 472.46 651.038 461.082 628.568 447.545C604.077 432.79 513.397 389.113 487.536 383.286L571.467 433.562C565.448 441.487 556.719 445.809 550.937 453.588C573.98 460.811 664.013 498.622 676.951 510.16L591.765 482.563C570.916 476.266 518.51 461.841 497.611 463.301C519.1 481.729 553.724 495.28 584.993 504.868C602.297 510.176 619.406 514.645 636.002 519.574C644.017 521.954 681.192 535.761 683.424 535.952C671.66 536.269 643.231 528.576 630.101 525.689C611.845 521.674 594.118 518.171 575.532 514.796C527.79 506.131 503.49 507.937 484.727 546.006L523.196 550.651L521.484 563.396C574.907 569.027 596.621 556.582 684.307 573.426C708.314 578.036 731.842 583.956 754.383 590.654C766.369 594.217 813.503 612.821 821.262 611.828C835.459 610.012 837.142 594.583 850.313 607.286C860.805 617.4 868.702 611.656 881.866 606.611C976.934 570.168 1062.96 560.509 1162.81 564.974C1160.02 556.665 1158.51 557.387 1155.32 550.797L1200.86 545.275C1199.88 541.764 1174.08 518.539 1169.94 515.343C1154.15 503.16 1140.11 507.991 1120.73 512.494C1086.78 520.381 1050.12 527.372 1016.7 534.079C1027.21 530.799 1042.97 523.277 1056.61 518.928C1072.12 513.986 1085.81 510.41 1101.42 505.356C1136 494.164 1153.82 484.602 1179.98 466.317C1158.58 458.168 1032.37 504.392 1005.93 511.217L1065.63 482.765C1076.47 478.222 1086.41 474.342 1097.04 470.266C1103.97 467.608 1125.42 460.886 1129.81 457.067C1123.37 449.213 1115.57 447.044 1114.92 433.428C1128.91 423.937 1200.51 388.837 1206.33 381.647C1202.41 377.958 1206.24 377.882 1198.04 380.576C1178.04 387.14 1073.24 438.502 1058.19 446.475C991.742 481.664 976.614 498.447 924.546 531.134C950.073 504.967 979.905 483.62 1012.71 461.18L1110.97 399.961C1103.82 395.028 1101.08 395.681 1093.36 388.733C1074.22 371.519 1067.25 384.716 1036.04 409.631C1012.88 428.118 989.033 447.219 967.445 466.711C930.074 500.455 906.725 523.409 873.582 559.776C837.074 599.833 849.809 601.443 811.563 558.765C801.797 547.868 791.287 536.645 780.724 526.66C770.018 516.541 759.907 505.691 748.533 495.855C743.193 491.239 737.365 485.437 732.244 480.688C718.132 467.611 628.276 390.948 611.839 381.27C601.969 375.458 597.059 381.544 590.46 386.485C585.046 390.541 577.48 395.146 572.733 399.961Z" fill="white"/>
<path fill-rule="evenodd" clip-rule="evenodd" d="M804.418 296.107C771.329 301.907 763.792 278.798 756.035 272.248C756.467 304.247 768.45 330.045 782.18 349.99C789.844 361.123 809.236 381.951 819.451 390.577C826.988 396.944 827.376 396.879 838.923 395.628L838.933 0L816.73 80.9989C808.384 107.4 800.109 132.036 789.143 156.521C781.009 174.685 765.21 211.951 763.586 234.299C761.144 267.858 775.163 292.914 804.418 296.107Z" fill="white"/>
<path fill-rule="evenodd" clip-rule="evenodd" d="M851.594 396.123C867.418 396.128 868.796 394.241 885.12 377.814C910.264 352.515 936.122 313.113 934.449 270.734C922.825 286.363 915.415 300.418 886.56 296.324C953.281 279.455 922.614 203.637 902.157 158.475C873.534 95.2778 870.296 59.8565 852.519 0.832031L851.594 396.123Z" fill="white"/>
<path fill-rule="evenodd" clip-rule="evenodd" d="M807.156 449.451C836.062 485.445 825.647 468.941 837.148 501.716L839.667 510.382C840.882 514.56 840.735 515.95 842.347 518.02L842.191 466.455L842.341 456.819C842.341 456.796 841.966 456.707 841.672 456.578C840.927 456.255 839.85 455.794 838.931 454.725C837.58 453.152 837.013 452.347 836.729 450.713C835.9 445.986 837.252 442.815 841.222 441.028C842.223 440.575 842.944 440.148 844.884 440.193C846.442 440.229 847.923 440.803 849.28 441.668C850.202 442.219 850.796 443.028 851.426 443.844C853.279 446.113 853.014 449.803 852.563 451.142C851.95 453.788 849.908 455.798 848.373 456.828L848.407 466.688L848.427 518.02C853.129 505.801 855.735 492.793 861.257 480.239C868.985 462.671 876.111 460.875 883.254 449.451C875.093 437.356 862.422 434.717 862.441 409.955L828.213 409.426C827.661 432.907 817.374 437.556 807.156 449.451Z" fill="white"/>
<path fill-rule="evenodd" clip-rule="evenodd" d="M765.184 393.709C765.495 383.063 681.94 169.041 663.663 128.717C655.844 111.465 651.094 89.8191 642.756 98.7513C637.787 104.072 665.842 164.455 669.701 173.676C690.036 222.252 745.262 370.361 765.184 393.709Z" fill="#ECC468"/>
<path fill-rule="evenodd" clip-rule="evenodd" d="M915.301 396.748C926.392 389.055 972.843 272.887 982.001 251.74C992.638 227.173 1002.39 202.18 1012.53 177.306C1018.09 163.682 1043.05 112.076 1040.08 100.9C1028.32 100.734 1028.52 109.639 1019.01 132.885L973.307 244.512C960.857 276.702 919.767 369.899 915.301 396.748Z" fill="#ECC468"/>
<path fill-rule="evenodd" clip-rule="evenodd" d="M728.871 414.299L548.472 170.402C544.085 164.178 542.35 156.364 533.087 156.485C528.682 166.631 534.273 165.781 539.564 173.987C573.545 226.675 635.919 304.573 674.773 354.904C690.878 375.765 723.487 407.081 728.871 414.299Z" fill="#ECC468"/>
<path fill-rule="evenodd" clip-rule="evenodd" d="M963.801 403.521C974.211 394.979 1003.14 357.834 1013.43 345.801C1025.78 331.363 1143.51 174.774 1150.46 158.216L1145.38 153.138C1137.88 159.669 1128.76 174.233 1122.38 183.03C1104.49 207.695 969.295 392.409 963.801 403.521Z" fill="#ECC468"/>
<path fill-rule="evenodd" clip-rule="evenodd" d="M508.848 295.599C532.876 302.619 539.003 318.609 547.237 331.745C553.846 312.181 566.494 301.345 585.633 295.228C562.106 278.321 566.403 294.398 546.845 253.786C538.404 272.008 538.761 278.236 522.279 287.799L508.848 295.599Z" fill="white"/>
<path fill-rule="evenodd" clip-rule="evenodd" d="M1104.09 293.366C1104.47 293.64 1105.08 293.529 1105.26 294.123L1114.79 299.461C1128.69 307.64 1129.65 314.915 1139.26 328.771C1142.45 319.612 1144.46 311.98 1149.33 306.617C1154.98 300.389 1161.97 299.245 1168.75 293.366C1159.87 286.918 1155.94 289.287 1148.59 279.022C1144.31 273.053 1140.17 263.289 1135.04 257.614C1132.49 285.558 1121.77 282.181 1104.09 293.366Z" fill="white"/>
<path fill-rule="evenodd" clip-rule="evenodd" d="M974.527 347.256C985.98 334.421 1011.17 291.237 1024.06 271.416C1028.63 264.391 1039.61 252.221 1036.98 242.799C1025.78 237.212 1028.59 244.053 1018.4 261.614C1005.74 283.431 978.471 325.207 974.527 347.256Z" fill="white"/>
<path fill-rule="evenodd" clip-rule="evenodd" d="M707.089 348.2C703.904 331.867 689.485 306.017 681.94 292.1L660.234 252.295C657.976 247.419 654.826 237.433 647.707 245.052C642.08 251.075 655.759 265.881 659.47 272.006L707.089 348.2Z" fill="white"/>
<path d="M844.702 457.174C849.233 457.174 852.907 453.381 852.907 448.702C852.907 444.023 849.233 440.229 844.702 440.229C840.17 440.229 836.496 444.023 836.496 448.702C836.496 453.381 840.17 457.174 844.702 457.174Z" fill="white" stroke="white" stroke-width="0.288" stroke-miterlimit="22.9256"/>
</svg>
